<?xml version="1.0" encoding="utf-8"?>
<!-- Generator: Adobe Illustrator 24.1.1, SVG Export Plug-In . SVG Version: 6.00 Build 0)  -->
<svg version="1.1" id="Layer_1" xmlns="http://www.w3.org/2000/svg" xmlns:xlink="http://www.w3.org/1999/xlink" x="0px" y="0px"
	 viewBox="0 0 227 71" style="enable-background:new 0 0 227 71;" xml:space="preserve">
<style type="text/css">
	.st0{fill:none;}
	.st1{fill:#ADD1FF;}
	.st2{fill:#FFFFFF;}
</style>
<path class="st0" d="M209.4,30.5c0.2,0.1,0.3,0.2,0.3,0.3C209.6,30.6,209.6,30.6,209.4,30.5z"/>
<path class="st0" d="M206.8,35c0.3-0.4,0.9-0.7,1.2-0.8C207.6,34.3,207.1,34.7,206.8,35z"/>
<path class="st0" d="M209.6,30.8c0-0.1,0-0.2-0.3-0.3C209.6,30.5,209.7,30.6,209.6,30.8z"/>
<path class="st0" d="M209.4,31.5C209.4,31.5,209.4,31.5,209.4,31.5C209.4,31.5,209.4,31.5,209.4,31.5z"/>
<path class="st0" d="M203.3,19.8c-0.1-0.1-0.2-0.1-0.3-0.1C203.1,19.7,203.2,19.7,203.3,19.8c0.1,0,0.1,0.1,0.2,0.2l0,0c0,0,0,0,0,0
	c0,0,0,0,0,0v0c0,0,0,0,0,0v0l0,0C203.4,19.9,203.4,19.8,203.3,19.8z"/>
<path class="st0" d="M206.5,35.8C206.5,35.9,206.5,35.9,206.5,35.8C206.5,35.9,206.5,35.9,206.5,35.8z"/>
<path class="st0" d="M207.2,34.8c0,0-0.1,0-0.1,0.1C207.1,34.8,207.1,34.8,207.2,34.8z"/>
<path class="st0" d="M206.9,35.1C206.9,35.1,206.9,35,206.9,35.1C206.9,35,206.9,35.1,206.9,35.1z"/>
<path class="st0" d="M206.7,35.3C206.7,35.3,206.7,35.3,206.7,35.3C206.7,35.3,206.7,35.3,206.7,35.3z"/>
<path class="st0" d="M206.6,35.5L206.6,35.5L206.6,35.5z"/>
<path class="st0" d="M207.5,34.5c-0.1,0-0.2,0.1-0.2,0.2C207.4,34.6,207.4,34.6,207.5,34.5z"/>
<path class="st0" d="M206.5,35.7C206.5,35.7,206.5,35.7,206.5,35.7C206.5,35.7,206.5,35.7,206.5,35.7z"/>
<path class="st0" d="M207.2,32.6c0.1-0.4,0.9-1.1,1.3-1.2C208.2,31.5,207.4,32.2,207.2,32.6c-0.1,0.2-0.1,0.3,0.1,0.4v0
	C207.1,33,207.1,32.8,207.2,32.6z"/>
<path class="st0" d="M207.5,32.6c0.1-0.1,0.1-0.1,0.2-0.2C207.6,32.5,207.6,32.5,207.5,32.6C207.5,32.5,207.5,32.6,207.5,32.6z"/>
<path class="st0" d="M207.8,32.4c0.3-0.1,0.7-0.2,0.9-0.5c0,0,0,0,0,0C208.4,32.2,208,32.3,207.8,32.4z"/>
<polygon class="st0" points="203.3,22.1 203.3,22.1 203.2,22.1 203.2,22.1 "/>
<path class="st0" d="M203.1,20.9c0,0,0-0.1,0-0.1c0.1-0.3,0.4-0.4,0.3-0.8c0,0,0,0,0,0C203.6,20.4,203.1,20.5,203.1,20.9L203.1,20.9
	z"/>
<path class="st1" d="M207.3,32.9c-0.1,0-0.1-0.1-0.1-0.3c-0.1,0.2-0.1,0.3,0.1,0.4V32.9C207.3,32.9,207.3,32.9,207.3,32.9z"/>
<path class="st1" d="M208.7,31.8C208.7,31.8,208.7,31.8,208.7,31.8c0,0.1-0.1,0.1-0.1,0.2C208.9,31.8,209,31.8,208.7,31.8z"/>
<path class="st1" d="M209.3,31.4c0,0.1,0,0.1,0,0.2C209.4,31.5,209.4,31.5,209.3,31.4c0.1-0.2,0.3-0.4,0.3-0.6
	C209.6,30.9,209.4,31.1,209.3,31.4C209.4,31.4,209.3,31.4,209.3,31.4z"/>
<polygon class="st1" points="203.1,20.9 203.1,20.9 203.1,20.9 203.1,20.9 "/>
<path class="st1" d="M203.2,20.7c0.1-0.1,0.2-0.1,0.3-0.2v0l0,0l0.1-0.5c0,0,0,0,0,0C203.6,20.4,203.3,20.5,203.2,20.7z"/>
<path class="st1" d="M203.5,20.5L203.5,20.5L203.5,20.5C203.5,20.5,203.5,20.5,203.5,20.5L203.5,20.5L203.5,20.5L203.5,20.5
	L203.5,20.5L203.5,20.5z"/>
<path class="st2" d="M203.2,20.8L203.2,20.8c0,0,0,0.1,0,0.1l0,0C203.2,20.8,203.2,20.8,203.2,20.8z"/>
<path class="st2" d="M203.2,20.8C203.2,20.8,203.2,20.8,203.2,20.8l0.2,0.1l0-0.3C203.3,20.6,203.2,20.7,203.2,20.8z"/>
<polygon class="st2" points="203.4,20.9 203.2,20.9 203.1,20.9 203.2,20.9 203.4,20.9 203.5,20.5 203.4,20.5 "/>
<polygon class="st2" points="203.1,20.9 203.2,20.9 203.1,20.9 "/>
<path class="st2" d="M203.2,20.7L203.2,20.7c0.1-0.1,0.2-0.1,0.3-0.2v0C203.3,20.6,203.2,20.7,203.2,20.7z"/>
<path class="st2" d="M203.2,20.9L203.2,20.9C203.2,20.8,203.2,20.8,203.2,20.9C203.2,20.8,203.2,20.8,203.2,20.9z"/>
<polygon class="st2" points="203.4,20.5 203.4,20.5 203.5,20.5 203.5,20.5 "/>
<polygon class="st2" points="203.1,20.9 203.1,20.9 203.2,20.9 203.2,20.9 "/>
<path class="st2" d="M203.1,20.9L203.1,20.9L203.1,20.9L203.1,20.9L203.1,20.9C203.1,20.9,203.1,20.9,203.1,20.9
	c-0.6,0.6,0,0.4,0,1.3h0C203.2,21.3,202.6,21.5,203.1,20.9L203.1,20.9C203.1,20.9,203.1,20.9,203.1,20.9z"/>
<path class="st2" d="M203.5,20l0.1-1.3h0L203.5,20C203.5,20,203.5,20,203.5,20z"/>
<polygon class="st2" points="203.1,20.9 203.1,20.9 203.1,20.9 203.1,20.9 "/>
<path class="st2" d="M203.1,20.9L203.1,20.9L203.1,20.9L203.1,20.9z"/>
<path class="st2" d="M203.1,20.9L203.1,20.9L203.1,20.9z"/>
<path class="st2" d="M203.1,20.9L203.1,20.9L203.1,20.9z"/>
<path class="st2" d="M203.1,20.9L203.1,20.9L203.1,20.9z"/>
<path class="st2" d="M203.5,20l-0.1,0.5c0.1-0.1,0.3-0.2,0.2-0.4C203.6,20.1,203.6,20.1,203.5,20C203.6,20,203.6,20,203.5,20
	L203.5,20L203.5,20z"/>
<path class="st2" d="M203.5,20L203.5,20c0,0,0.1,0.1,0.1,0.1C203.6,20,203.6,20,203.5,20z"/>
<path class="st2" d="M203.5,20.5L203.5,20.5c0.1-0.1,0.3-0.2,0.2-0.3C203.7,20.3,203.6,20.4,203.5,20.5z"/>
<polygon class="st2" points="203.5,20.5 203.5,20 203.5,20 "/>
<polygon class="st2" points="203.5,20.5 203.5,20.5 203.5,20.5 "/>
<path class="st2" d="M209.4,30.4c0.2,0.1,0.3,0.2,0.3,0.3c0,0.2-0.2,0.4-0.3,0.7c0,0.1,0,0.1,0,0.1c0,0,0-0.1,0-0.2
	C208.8,31.1,208.8,30.2,209.4,30.4z M208.6,31.9C208.6,31.9,208.6,31.9,208.6,31.9c-0.2,0.3-0.6,0.3-0.9,0.5c0,0,0,0,0,0
	c-0.1,0-0.2,0.1-0.2,0.2c0,0,0,0-0.1,0.1c0,0,0,0,0,0c0,0.1-0.1,0.2-0.1,0.2V33c0,0,0,0,0,0v0c-0.2-0.1-0.2-0.2-0.1-0.4
	c0.1-0.4,0.9-1.1,1.3-1.2c0.1,0,0.2,0,0.2,0.2c0,0,0,0.1,0,0.1c0,0,0,0,0,0h0C209,31.8,208.9,31.8,208.6,31.9z"/>
<path class="st2" d="M207.3,32.9L207.3,32.9c0,0.1,0,0.1,0,0.1L207.3,32.9C207.3,32.9,207.3,32.9,207.3,32.9L207.3,32.9z"/>
<path class="st2" d="M208.7,31.8L208.7,31.8c0.3,0,0.2,0.1-0.1,0.2l0,0C208.9,31.8,209,31.8,208.7,31.8z"/>
<path class="st2" d="M209.4,31.5c0,0,0-0.1,0-0.2C209.3,31.4,209.3,31.5,209.4,31.5z"/>
<path class="st2" d="M209.6,30.8c0,0.2-0.2,0.4-0.3,0.7C209.4,31.2,209.7,30.9,209.6,30.8z"/>
<path class="st1" d="M18.9,57.9l-0.5-2c-0.1-0.9,0.8-2.1,0.1-2.7c0,0.3-0.1,0.7-0.1,1c0,0,0,0,0,0c0,0.3-0.1,0.7-0.1,1l0,0
	c0,0,0,0,0,0l0-0.1c0,0,0,0.1,0,0.1l-0.3-1c-0.2-0.7-0.6-1-1.1-0.9c0,0-0.1,0-0.1,0l-1.4,0.4l1.7,5.9l1.3-0.4
	C18.9,59.2,19.2,58.8,18.9,57.9z"/>
<path class="st1" d="M47.2,40.7c0.1,0,0.2-0.1,0.3-0.1c0,0,0,0,0,0c0,0,0,0,0.1,0c0.1,0,0.1-0.1,0.2-0.2c0,0,0,0,0,0
	c0-0.1,0.1-0.1,0.1-0.2c0,0,0,0,0-0.1c0-0.1,0-0.2,0-0.2c0,0,0-0.1,0-0.1c0-0.1,0-0.3-0.1-0.4l-1.1-4l0,0c0-0.1-0.1-0.3-0.2-0.4
	c0,0,0,0,0,0c0,0,0,0,0,0c0-0.1-0.1-0.2-0.2-0.2c0,0,0,0,0,0l0,0c-0.1-0.1-0.2-0.1-0.3-0.2c-0.1,0-0.2,0-0.2-0.1c0,0-0.1,0-0.1,0
	c-0.1,0-0.2,0-0.3,0l-1.4,0.4l1.9,6.3L47.2,40.7z"/>
<path class="st1" d="M127.6,32.5V22.2l-2.9,12l1.8,0.2l0,0h0c-0.1,0.1-0.3,0.3-0.3,0.4c0,0,0,0,0,0c0,0.1-0.1,0.1-0.1,0.2
	c0,0,0,0,0,0.1c0,0.1,0,0.1,0,0.2c0.1,0.9,1.4,1.7,2.6,1.7c0.2,0,0.3,0,0.5-0.1c0,0,0,0,0,0c0,0,0,0,0,0c0,0,0.1,0,0.1-0.1
	c0.7-0.4,1.3-1.1,1.4-1.9c0-0.2-0.1-0.4-0.1-0.6c-0.2-0.3-0.5-0.5-0.7-0.8c0,0,0-0.1-0.1-0.1c0,0,0-0.1-0.1-0.1c0,0,0,0,0,0
	c0,0,0-0.1,0-0.1c0-0.1,0-0.1,0-0.2c-0.7,0.2-1.4,0.3-2.1,0.3v0h0V33h0.1v-0.5L127.6,32.5L127.6,32.5L127.6,32.5z"/>
<path class="st1" d="M209.4,30.5c0,0.2-0.1,0.6,0,0.9c0,0,0,0,0,0c0-0.2,0.2-0.4,0.3-0.6C209.6,30.6,209.6,30.6,209.4,30.5z"/>
<path class="st1" d="M209.3,31.4c0-0.2,0-0.7,0-0.9c0.2,0.1,0.3,0.2,0.3,0.3c0-0.1,0-0.2-0.3-0.3C208.8,30.2,208.8,31.1,209.3,31.4z
	"/>
<path class="st1" d="M202.4,20.1c-0.1,0.1-0.2,0.3-0.3,0.4c0.2,0,0.4,0,0.5,0.1c0.2,0.1,0.3,0.1,0.5,0.2l0,0c0-0.4,0.4-0.4,0.3-0.9
	c-0.1-0.1-0.1-0.1-0.2-0.2c-0.1-0.1-0.2-0.1-0.3-0.1s-0.2,0-0.3,0.1C202.6,19.9,202.5,20,202.4,20.1z"/>
<path class="st1" d="M203.5,19.9c-0.1-0.1-0.1-0.1-0.2-0.2C203.3,19.8,203.4,19.9,203.5,19.9L203.5,19.9z"/>
<path class="st1" d="M203.1,20.9L203.1,20.9L203.1,20.9z"/>
<path class="st1" d="M202.6,20.6c0.2,0.1,0.3,0.1,0.5,0.2l0,0C203,20.8,202.8,20.7,202.6,20.6c-0.2,0-0.3-0.1-0.5-0.1
	c0.1-0.1,0.2-0.3,0.3-0.4s0.2-0.2,0.3-0.3c0.1-0.1,0.2-0.1,0.3-0.1c-0.1,0-0.2,0-0.3,0.1c-0.1,0.1-0.2,0.2-0.3,0.3s-0.2,0.3-0.3,0.4
	C202.3,20.5,202.5,20.6,202.6,20.6c0.2,0.1,0.3,0.1,0.5,0.3l0,0C203,20.8,202.8,20.7,202.6,20.6z"/>
<polygon class="st1" points="203.1,20.9 203.1,20.9 203.1,20.9 "/>
<polygon class="st1" points="203.1,20.9 203.1,20.9 203.1,20.9 "/>
<path class="st1" d="M202.4,20.1c0.1-0.1,0.2-0.2,0.3-0.3C202.6,19.9,202.5,20,202.4,20.1z"/>
<path class="st1" d="M202.1,14.9c0.5-0.4,0.5-1.2-0.7-0.9C201.3,14.4,201.6,14.8,202.1,14.9z"/>
<path class="st1" d="M207.6,13.6c0.1-1.2-0.9,0-1.7-0.7v0.9C206.8,14.3,206.7,13.5,207.6,13.6z"/>
<path class="st1" d="M206.6,35.5c0,0.1-0.1,0.1-0.1,0.2C206.5,35.6,206.5,35.5,206.6,35.5z"/>
<path class="st1" d="M206.7,35.3c-0.1,0.1-0.1,0.1-0.1,0.2C206.6,35.4,206.6,35.3,206.7,35.3z"/>
<path class="st1" d="M206.5,35.8c0,0,0-0.1,0-0.2C206.5,35.8,206.5,35.8,206.5,35.8z"/>
<path class="st1" d="M207.3,34.7c0,0-0.1,0.1-0.1,0.1C207.2,34.8,207.3,34.7,207.3,34.7z"/>
<path class="st1" d="M206.7,35.3c0.1-0.1,0.1-0.1,0.2-0.2C206.8,35.1,206.8,35.2,206.7,35.3z"/>
<path class="st1" d="M207.1,34.9c-0.1,0-0.1,0.1-0.2,0.2C206.9,35,207,34.9,207.1,34.9z"/>
<path class="st1" d="M207.9,34.3C207.9,34.3,208,34.3,207.9,34.3C208,34.3,207.9,34.3,207.9,34.3L207.9,34.3z"/>
<path class="st1" d="M207.5,34.5c0.1-0.1,0.3-0.2,0.4-0.2l0,0C207.8,34.4,207.7,34.5,207.5,34.5z"/>
<path class="st1" d="M208.6,31.9c0,0,0-0.1,0.1-0.2c-0.5,0-1.3,0.5-1.4,0.9c-0.1,0.1,0,0.2,0.1,0.3c0-0.1,0-0.2,0.1-0.2c0,0,0,0,0,0
	c0,0,0.1,0,0.1-0.1c0,0,0,0,0.1-0.1c0,0-0.1,0.1-0.1,0.1c0,0,0,0,0,0c0,0,0,0,0,0C207.6,32.3,208.3,32.1,208.6,31.9
	C208.6,31.9,208.6,31.9,208.6,31.9C208.6,31.9,208.6,31.9,208.6,31.9C208.6,31.9,208.6,31.9,208.6,31.9
	C208.6,31.9,208.6,31.9,208.6,31.9z"/>
<path class="st1" d="M208.6,31.9C208.6,31.9,208.6,31.9,208.6,31.9C208.6,31.9,208.6,31.9,208.6,31.9L208.6,31.9L208.6,31.9z"/>
<path class="st1" d="M207.4,32.7c0,0.1-0.1,0.1-0.1,0.2c0,0,0,0,0,0C207.3,32.8,207.4,32.8,207.4,32.7
	C207.4,32.7,207.4,32.7,207.4,32.7C207.4,32.6,207.5,32.6,207.4,32.7C207.4,32.6,207.4,32.6,207.4,32.7
	C207.4,32.7,207.4,32.7,207.4,32.7z"/>
<path class="st1" d="M207.5,32.5c0.1,0,0.1-0.1,0.2-0.1c0,0,0,0,0,0c0.3-0.1,0.6-0.2,0.8-0.5C208.3,32.1,207.8,32.3,207.5,32.5z"/>
<path class="st1" d="M207.8,32.4C207.7,32.4,207.7,32.4,207.8,32.4C207.7,32.4,207.7,32.4,207.8,32.4z"/>
<path class="st1" d="M208.6,31.9c-0.4,0.1-1,0.4-1.2,0.7c0,0,0.1-0.1,0.1-0.1C207.8,32.3,208.3,32.1,208.6,31.9
	C208.6,31.9,208.6,31.9,208.6,31.9z"/>
<path class="st1" d="M207.2,32.6c0.2-0.4,0.9-0.9,1.4-0.9h0c0,0,0-0.1,0-0.1c0-0.2-0.1-0.2-0.2-0.2
	C208.1,31.5,207.4,32.2,207.2,32.6z"/>
<path class="st1" d="M208.7,31.6c0,0,0,0.1,0,0.1h0C208.7,31.7,208.7,31.7,208.7,31.6c0-0.2-0.1-0.2-0.2-0.2
	C208.6,31.4,208.7,31.5,208.7,31.6z"/>
<path class="st1" d="M13.8,50.2c0.1,0.1,0.2,0.2,0.4,0.2c0.1,0,0.2,0.1,0.3,0.1c0,0,0.1,0,0.1,0c0.1,0,0.2,0,0.3,0
	c0.2-0.2,0.2-0.4,0.2-0.7l0.4-0.1c0.3-0.1,0.6-0.3,0.7-0.5c0,0,0,0,0,0c0-0.1,0.1-0.3,0.1-0.4c0,0,0,0,0,0c0-0.2,0-0.3-0.1-0.5
	L15,44.6c-0.1-0.3-0.2-0.5-0.4-0.7c-0.1-0.2-0.3-0.2-0.5-0.2c-0.1,0-0.3,0-0.4,0l-1.4,0.4l1.4,4.6l0,0v0c-0.3,0-0.6,0.3-0.7,0.5
	C13.2,49.5,13.5,49.9,13.8,50.2z"/>
<path class="st1" d="M29.1,48c0-0.2-0.1-0.3-0.2-0.5c-0.1-0.2-0.2-0.4-0.3-0.5c0-0.1-0.1-0.2-0.2-0.2c-0.1-0.1-0.2-0.2-0.3-0.3
	c-0.1-0.1-0.1-0.1-0.2-0.2c-0.2-0.1-0.3-0.2-0.5-0.3c0.4-0.1,0.6-0.3,0.8-0.7c0.3-0.9,0-2.3-0.9-2.3c-0.1,0-0.2,0-0.3,0
	c0,0.6-0.1,1.2-0.4,1.7c-0.1,0.3-0.3,0.5-0.5,0.7s-0.5,0.4-0.7,0.5c0.7,0.9,0.4,1.5,0.6,2.3c0,0,0,0,0,0c0,0.1,0,0.2,0.1,0.3
	c0,0,0,0.1,0,0.1c0,0.1,0.1,0.3,0.2,0.4c0.3,0.2,0.6,0.2,0.9,0.2c0.5,0,1-0.3,1.4-0.7C28.8,48.4,29,48.2,29.1,48z"/>
<path class="st1" d="M36.6,27.4c-0.2-0.4-0.4-0.7-0.8-0.8c-1,0.3-1,0.9-0.5,1.8C35.8,28.2,36.3,27.9,36.6,27.4z"/>
<polygon class="st1" points="59.7,18.3 59.5,17.7 58.7,17.9 59,18.6 "/>
<path class="st1" d="M31.5,29.1c1.2-0.4,1.6-1.1,1.3-2c-0.3-0.9-0.8-0.3-1.2-0.7C29.9,27.1,30.1,28.5,31.5,29.1z"/>
<path class="st1" d="M33.9,25.8c-0.2-1.2-1.1-1-2-0.8C32.2,26,33.2,25.5,33.9,25.8z"/>
<path class="st1" d="M29.7,24c-0.1-0.5-0.7-0.8-1.2-0.7C28.7,23.8,29.2,24.1,29.7,24z"/>
<path class="st1" d="M14.8,29.5l-0.4-1L13.3,29C13.6,29.7,14.1,29.8,14.8,29.5z"/>
<path class="st1" d="M205.7,16.1c0.1-0.3,0-0.6-0.2-0.8c-0.5-0.1-0.9,0.2-1.2,0.7l-86.7-8.7l-3,12.6l-3.8-13L39.4,27.8
	c-0.3-0.8-0.9-0.9-1.7-0.8c0.2,0.4,0.5,0.7,0.9,1L1.2,39l9.1,30.9l63.1-18.6h1l-0.5-0.2l35.9-10.6l-1.3,5.3l76.7,9
	c0.3,0.3,0.8,0.4,1.3,0.2l17.6,2.1c0.7,1.8,3.3,3,4.6,0.5l13.4,1.6l3.7-41.3L205.7,16.1z M24.3,60.8c-0.6,1.3-1.9,2.3-3.5,2.8
	l-8.3,2.4L5.3,41.3l8.3-2.4c1.4-0.4,2.7-0.4,3.9,0.1c1.2,0.5,2.2,1.6,2.7,3.3l1,3.3c0.5,1.6,0.4,3.5-1.6,4.6c1.1,0,2,0.3,2.6,0.9
	c0.6,0.5,1,1.3,1.3,2.2l1.1,3.7C24.9,58.5,24.8,59.7,24.3,60.8z M35.2,59.8c-3.4,1.1-6.8-0.2-8.3-2.8c-0.2-0.4-0.4-0.8-0.5-1.2
	l-5.6-19l5.7-1.7l0,0l0,0l1.6,5.5c-0.6,0.3-1.1,0.6-0.9,1.3c0,0.1,0.1,0.2,0.2,0.3l1-0.4l0,0l0,0l3.7,12.4c0,0.1,0.1,0.2,0.1,0.2
	c0.3,0.5,0.9,0.8,1.5,0.6c0,0,0,0,0.1,0s0.1,0,0.1,0c0.4-0.1,0.6-0.4,0.8-0.8c0,0,0-0.1,0-0.1c0-0.1,0-0.2,0-0.3c0-0.1,0-0.2,0-0.3
	c0,0,0,0,0-0.1l-5.6-19l5.5-1.6l0,0l0,0l3.6,12.1L37.6,45c0,0.1,0,0.3,0.1,0.4c0.2,0.3,0.5,0.6,0.9,0.7l0,0l0,0l0.9,3.3l-0.8,0.3
	c0,0.2,0.1,0.3,0.1,0.5C39,50.6,39.5,51,40,51l0,0l0,0l0.2,0.7C41.2,55.2,39.2,58.6,35.2,59.8z M56,53.1L56,53.1L56,53.1L56,53.1
	L56,53.1L56,53.1l-2.2,0.7c-0.3,0.1-0.7-0.1-1.1-0.5c-0.6-0.7-1.1-1.9-1.4-2.9L50,45.8c0,0,0,0,0,0c-0.2-0.7-0.9-1.2-1.6-1L47,45.2
	l2.8,9.8l-5.7,1.7v0h0l-3.5-12c0.1-0.2,0.3-0.4,0.5-0.6c-0.6-0.6-0.6-1.3-1-1.8C40,42.1,40,42,39.9,41.9l0,0l0,0l-2.9-10l8-2.4
	c2.1-0.6,4.4-0.1,5.9,1.5c0.5,0.5,0.9,1.2,1.1,2.1l1.3,4.3c0.3,1.4-0.2,3-1.3,3.9c1.3,0.2,2.4,0.9,3.1,2.1c0,0,0,0,0,0
	c0,0.1,0,0.1-0.1,0.1c-0.2,0.2-0.2,0.4,0,0.6h0.3v0h0l1.3,4.3c0.3,1,0.8,2,1.3,2.9c-0.9,0.4-1.6,1-2.3,1.7H56z M69.8,49l-6.1-8
	l-2.4-3.1l3.2,10.8c-0.8,0.4-1.2,1.3-1.2,2.2l-1.9,0.5c0.3-0.2,0.7-0.4,0.9-0.7c-0.6-0.5-0.9-0.3-1.1-0.9l-1.7,0.7l-1.6-5.5l0.4-0.2
	l-0.2-0.5l-0.4,0.2l-4.4-15c0.4-0.1,0.8-0.2,1.2-0.4c-0.1,0-0.1,0-0.1-0.1c0,0,0-0.1,0-0.1c-0.2-0.4-0.5-0.6-0.9-0.6
	c-0.1,0-0.3,0-0.4,0.1l-0.4-1.3l4.7-1.4l0.2,0.5l0.4-0.2l2.4,3.3c-0.4,0-0.4-0.7-1.2-0.3C59,29.3,59,29.4,59,29.5
	c0,0.5,1.2,1.2,1.1,0.9c-0.1-0.4,0.3-0.5,0.4-0.8l3.2,4.4l2.4,3.1L63,26.6l0.5-0.2c-0.2-0.4-0.4-0.7-0.8-0.8l-0.3-1.1l5-1.5l2.1,7.2
	c-0.6-0.1-1.1,0-1.5,0.3c-0.2,0.3,0.2,0.7-0.4,0.8c0.6,0.2,0.8,0.8,1.1,0.9c0.5,0,0.9-0.3,1.1-0.7v0l0,0l4.7,16.1L69.8,49z M77,47
	L77,47L77,47l-2.7-9.1h0l0,0c0.3,0,0.7,0.2,0.9,0.2c0.2,0,0.3-0.1,0.4-0.3c0.2-0.6,0.2-1.2-0.6-1.3c-0.6,0.1-0.9,0.5-0.9,1l0,0
	c0,0,0,0,0,0l-4.5-15.1l5.7-1.6l0,0h0l4.4,14.9h0l0,0c-0.2-0.1-0.4-0.1-0.6,0c-0.2,0.1-0.5,0.2-0.8,0.4l0.6,1.3l1.3-0.4v0l0,0
	l2.5,8.5L77,47z M94.9,41.7L94.9,41.7L94.9,41.7l-6.1-8l-0.2-0.2h0h0.3c-0.2-0.5,0.5-0.7,0.2-1.2c-0.1,0.1-0.2,0.2-0.3,0.3
	c-0.7,0.3-0.5-1.3-0.9-1.5c-0.4,0-0.7,0.2-0.9,0.5l0,0c0,0,0,0,0,0l-0.7-0.9L90,43.1l-5,1.5v0h0l-7.3-24.5l5-1.5l0,0l0,0l2.4,3.4
	c-0.2,0.4-0.3,0.9-0.6,1.3c0.4,0,0.6,0.2,0.8,0.3c0.5,0.4,0.6,1.1,1.2,1.5c0.1,0.1,0.2,0.2,0.4,0.3l0,0l0,0
	c-0.2,0.1-0.4,0.2-0.3,0.3l1.2-0.2l0,0l0,0l0.9,1.2l2.4,3.1l-1.4-4.6c0.6-0.1,1.1-0.5,1.4-1.1c0.3-0.7,0.2-1.4-0.1-2
	c0-0.1-0.1-0.1-0.1-0.2c0,0,0-0.1-0.1-0.1c-0.6-0.9-1.6-1.6-2.7-1.9v0h0l-0.8-2.8l5-1.5v0h0l2.1,7h-0.1c0.1,0.4,0.2,0.7,0.5,1
	l4.8,16.5L94.9,41.7z M111.6,34.5c-0.3,1.8-1.7,3.3-3.5,3.8c-3.4,1-6.3-0.4-7.6-3.1c-0.2-0.4-0.3-0.8-0.5-1.2l-4-13.4
	c-0.9-3.1,1.7-7.2,5.3-8.3c3.6-1,6.8,0.4,8.2,2.8l0,0c0,0,0,0,0,0l-0.4,0.2l0.3,0.6l0.4-0.2l0,0l0,0l0.2,0.7l1.1,3.6l-4.9,1.4
	c0,0,0,0,0,0l0,0c0.8-1,0.6-2.2,0-3.2c-0.8-1.3-2.5-2.2-3.9-1.6c-1.3,0.5-0.9,1.7-1.8,2c0.7,1.3-0.3,2,0.4,3.4h-0.3
	c-0.4,0.1-0.6,0.5-0.5,0.9c0.9,0.4,1-1.2,1.3-0.9c0.3,0.2,1.4,0.3,1.3,0.4c0,0,0,0-0.1,0.1c-0.4,0.1-1,0.7-0.8,0.9
	c0.1,0.1,0.2,0.1,0.5,0.1s0.4,0,0.6,0.2c0.4,0.4,0.5,1.4,0.8,2c0,0.1,0.1,0.1,0.1,0.2v0c0,0,0,0,0,0l1.9,6.5c0,0,0,0,0.1,0.1
	s0,0,0,0.1c0,0,0.1,0,0.1,0.1c0.3,0.7,1.1,1,1.8,0.7c0.1,0,0.1,0,0.2,0c0.8-0.2,1.2-1,0.9-1.7l-0.9-3.1l-1.5,0.4l0,0l0,0l-0.5-1.6
	c0.1,0,0.1,0,0.1,0c0.1-0.1,0.1-0.3,0-0.4c-0.1-0.1-0.1-0.2-0.3-0.3v0c0,0,0,0,0,0l-0.4-1.3l7-2.1l0,0l0,0l3.7,12.3l-3.2,0.9
	L111.6,34.5z M127.8,45.6L127.8,45.6L127.8,45.6l0-5.2l-4.7-0.4l-1.2,5.1l-7.1-0.7v0h0l9.4-33.6l9.1,0.9v0h0l1.5,21.1v0.1h-0.1
	c0,0.1,0,0.1,0,0.1c-0.2,0.2-0.2,0.4-0.1,0.6c0,0.1,0.1,0.1,0.1,0.2v0c0,0,0,0,0,0l0.9,12.7L127.8,45.6z M160.3,21.9l-2.6,26.7
	l-6.5-0.7l-3.6-13l-1.5-5l-1.7,17.4l-7-0.7v0l0,0l3.4-34.1l7,0.7l3.3,13.1l1.4,5.1l1.8-17.6l5.6,0.6c0,0,0,0,0,0h0
	c-0.3,0.4-0.4,0.8-0.5,1.3c0,0.1,0,0.2,0,0.3c0,0.5,0.3,1.1,0.3,1.7c0,0.3,0,0.6-0.1,0.9c-0.3,0.1-0.4,0.2-0.5,0.4
	c-0.2,0.3-0.2,0.7-0.2,1.1c0,0,0,0.1,0,0.1C159.3,20.7,159.8,21.3,160.3,21.9L160.3,21.9L160.3,21.9z M183,24.5l-0.5,4.9h0l0,0
	l-7.5-0.8l0.5-5c0.1-1-0.5-1.9-1.8-2c-0.2,0-0.3,0-0.4,0c-1,0.1-1.6,0.7-1.7,1.6L170,37.9h0h0c-0.1,0.1-0.1,0.2,0,0.3v0.3
	c-0.3-0.2-0.6-0.3-0.6-0.1l0.5,0.3v0l0,0l-0.3,3.3c-0.1,0.5,0.1,1,0.4,1.3c0.3,0.4,0.8,0.6,1.5,0.7c1.4,0.1,2.2-0.6,2.3-1.7
	c1.4,0,2.6-0.6,2.3-2.1h-0.2c-0.2-0.1-0.3-0.2-0.4-0.3c-0.4-0.3-0.5-0.8-0.4-1.3c-0.9-0.3-1.3-1-2.2-1.3c-0.2,0.3-0.5,0.5-0.8,0.5v0
	c0,0,0,0,0,0v-0.6c0.2,0,0.4,0,0.6,0c0.8-0.1,1.4-0.9,1.2-1.7c-0.5-0.3-1-0.5-1.5-0.7v0c0,0,0,0,0,0l0.2-2l9.7,1v0h0l-0.4,4
	c-0.2-0.1-0.4-0.1-0.6-0.1c-0.5,0.5-0.5,0.9-0.2,1.2c0.2,0.2,0.4,0.3,0.6,0.3v0c0,0,0,0,0,0l-0.7,5.8c-0.3,0.1-0.6,0.1-0.8,0.3v0
	c0,0,0,0,0,0v-0.5h-0.1c-0.4,0-0.8,0.2-0.8,0.6c0.1,0,0.2,0.1,0.2,0.1c0.1,0.1,0.1,0.1,0.2,0.2l-0.3,0.2c0.5,0.2,1,0.2,1.5,0v0
	c0,0,0,0,0,0v0.2c-1.3,0-2.7,1.4-1.6,2.8c0.5,0.1,1,0.1,1.4-0.1v0c0,0,0,0,0,0l-0.2,1.6l-2.2-0.2c0,0,0,0,0,0h0
	c0.2-0.3,0.6-0.6,0.9-0.8c-0.4-0.3-0.8,0.2-1.2,0.3c0,0,0,0,0,0c0,0,0,0,0,0c0-0.2,0-0.3,0-0.4c-0.1-0.1-0.2-0.3-0.3-0.4
	c-0.1-0.1-0.2-0.3-0.1-0.6h-0.8c-0.2,0.8,0.4,1.4,0.5,1.9l-1.2-0.1v0h0l-0.6-2.9c-1.3,2.1-3.7,3.3-6.2,3c-2.7-0.3-4.8-1.5-6.1-3.2
	c-1.1-1.3-1.7-3-1.8-4.8c0,0,0,0,0,0c0,0,0,0,0,0c0.1,0,0.1,0.1,0.1,0.2h0.7c0-0.2,0.3-0.2,0.3-0.3c0-0.1,0.1-0.4,0.1-0.5
	c0,0,0-0.1-0.1-0.1c-0.1,0-0.2,0-0.3-0.1c-0.1,0-0.1-0.1-0.1-0.3h-0.7c0,0.1,0,0.2-0.1,0.3c0,0,0-0.1,0-0.1c0,0,0,0,0,0.1
	c0-0.3,0.1-0.5,0.1-0.8l0.2-1.7c0.2,0.1,0.4,0.1,0.6,0.1c0.2-0.1,0.3-0.3,0.3-0.5c0-0.2-0.1-0.4-0.2-0.5s-0.3-0.2-0.5-0.2v0
	c0,0,0,0,0,0l1.5-15.6c0-0.2,0-0.3,0.1-0.5c0.3,0,0.6-0.2,0.9-0.4c0,0,0,0,0,0c0,0,0,0,0,0c0.1,0.2,0.1,0.4,0.3,0.5
	c0.1,0.1,0.3,0.3,0.5,0.4c-0.2-0.9-0.7-1.6-1-2.5c0.7-0.3,0.9,0.1,1.8,0c0.1-0.4,0-0.6-0.2-0.7c-0.4-0.2-1-0.2-1-0.2v0c0,0,0,0,0,0
	V19l0.3-0.4c0.3-0.1,0.9,0.4,0.9-0.1c0-0.4,0.1-0.9,0.2-0.8c0,0,0,0,0.1,0.1c0.2,0.3,1.4,0.1,1.6,0c0.1-0.4,0-0.7-0.2-1
	c-0.1-0.1-0.2-0.1-0.3-0.2l0,0c0,0,0,0,0,0c2.1-1.3,4.6-1.9,7-1.6c2.2,0.2,4.1,1,5.5,2.1C182.1,19,183.3,21.8,183,24.5z M200.3,52.9
	l-16.7-1.7v0h0l0.7-7c0.8,0.2,1.6,0.3,2.4,0.2c0-0.5,0.5-1.4,0.2-1.6c0,0-0.1,0-0.2,0c-0.7,0.1-1.4-0.5-2.1-0.7c0,0,0,0,0,0
	c0,0,0,0-0.1,0c0.4,0,0.7-0.2,0.9-0.5c0.2-0.2,0.3-0.4,0.2-0.7h0c0,0,0,0,0,0h0c-0.1-0.2-0.2-0.3-0.3-0.4c-0.1-0.1-0.3-0.1-0.5-0.1
	v0c0,0,0,0,0,0v-0.8c0.2-0.2,0.5-0.3,0.3-0.8h-0.3v0h0l2.1-21.7l16.7,1.6v0h0l-0.1,1.3c0,0,0,0,0,0v0c0,0,0,0,0,0l0,0
	c0,0,0.1,0.1,0.1,0.1c0,0,0.1,0.1,0.1,0.1c0.1,0.2-0.1,0.3-0.2,0.4v0l0,0l0,0.3h-0.3c-0.6,0.6,0,0.4,0,1.3h0.1v0h0l-0.3,3.2
	l-8.8-0.9l-0.7,7.1l5.7,0.6v0h0l-0.6,5.9l-5.7-0.5l-0.6,7.5l8.8,0.9v0l0.1,0L200.3,52.9z M219.2,54l-0.1,0.7l-16.2-1.6v0l0,0
	l0.2-2.1c0.4-0.2,0.8-0.5,0.8-0.8c0-0.2-0.1-0.4-0.3-0.6l-0.4,0.1v0l0,0l2.6-26.3c0,0,0.1-0.1,0.1-0.1c0.1-0.2,0-0.4,0-0.5v0l0,0
	l0.4-3.8l7.9,0.8v0l0,0l-0.3,3.1l-2.4,24.2l8.4,0.8L219.2,54z"/>
</svg>
